<svg width="65" height="65" viewBox="0 0 65 65" fill="none" xmlns="http://www.w3.org/2000/svg">
<g clip-path="url(#clip0_5737_35300)">
<path d="M32.5 65C50.4493 65 65 50.4493 65 32.5C65 14.5507 50.4493 0 32.5 0C14.5507 0 0 14.5507 0 32.5C0 50.4493 14.5507 65 32.5 65Z" fill="#A0A0A0"/>
<path d="M14.8718 31.7957L46.2072 19.7138C47.6616 19.1884 48.9318 20.0686 48.4606 22.2677L48.4633 22.265L43.1278 47.4011C42.7324 49.1832 41.6735 49.6165 40.192 48.7769L32.067 42.7888L28.1481 46.5642C27.7147 46.9975 27.3491 47.3632 26.5095 47.3632L27.0864 39.0946L42.1447 25.4907C42.8001 24.9138 41.9985 24.5888 41.1345 25.163L22.5256 36.8792L14.5035 34.3767C12.762 33.8242 12.7241 32.6352 14.8718 31.7957Z" fill="white"/>
</g>
<defs>
<clipPath id="clip0_5737_35300">
<rect width="65" height="65" fill="white"/>
</clipPath>
</defs>
</svg>
