<svg width="92" height="92" viewBox="0 0 92 92" fill="none" xmlns="http://www.w3.org/2000/svg">
<g clip-path="url(#clip0_5737_35297)">
<path d="M46 92C71.4051 92 92 71.4051 92 46C92 20.5949 71.4051 0 46 0C20.5949 0 0 20.5949 0 46C0 71.4051 20.5949 92 46 92Z" fill="#4C4C4C"/>
<path d="M21.0474 45.0032L65.3991 27.9027C67.4576 27.159 69.2554 28.4048 68.5884 31.5175L68.5922 31.5137L61.0406 67.0908C60.4809 69.6132 58.9821 70.2265 56.8852 69.0382L45.3852 60.5627L39.8384 65.9063C39.2251 66.5197 38.7076 67.0372 37.5192 67.0372L38.3357 55.334L59.6491 36.0792C60.5767 35.2627 59.4421 34.8027 58.2192 35.6153L31.8804 52.1983L20.5261 48.6563C18.0612 47.8743 18.0076 46.1915 21.0474 45.0032Z" fill="white"/>
</g>
<defs>
<clipPath id="clip0_5737_35297">
<rect width="92" height="92" fill="white"/>
</clipPath>
</defs>
</svg>
