<svg width="132" height="131" viewBox="0 0 132 131" fill="none" xmlns="http://www.w3.org/2000/svg">
<g clip-path="url(#clip0_5737_35263)">
<path d="M66 131C102.175 131 131.5 101.675 131.5 65.5C131.5 29.3253 102.175 0 66 0C29.8253 0 0.5 29.3253 0.5 65.5C0.5 101.675 29.8253 131 66 131Z" fill="#CF3636"/>
<path d="M30.472 64.0803L93.625 39.7306C96.5561 38.6717 99.116 40.4457 98.1663 44.8778L98.1717 44.8724L87.4188 95.5312C86.6219 99.1228 84.4877 99.9961 81.502 98.304L65.127 86.2356L57.2288 93.8446C56.3555 94.7179 55.6186 95.4548 53.9265 95.4548L55.0891 78.7905L85.4375 51.3733C86.7584 50.2106 85.1427 49.5556 83.4015 50.7128L45.8973 74.3255L29.7297 69.282C26.22 68.1685 26.1436 65.7723 30.472 64.0803Z" fill="white"/>
</g>
<defs>
<clipPath id="clip0_5737_35263">
<rect width="131" height="131" fill="white" transform="translate(0.5)"/>
</clipPath>
</defs>
</svg>
